<mxfile host="app.diagrams.net" modified="2024-06-03T10:38:34.316Z" agent="Mozilla/5.0 (X11; Ubuntu; Linux x86_64; rv:124.0) Gecko/20100101 Firefox/124.0" etag="BSbJl0t_9FHf4oYBVV7x" version="22.1.21" type="device">
  <diagram name="Page-1" id="VSREPxjnozLZv9PdrG7Y">
    <mxGraphModel dx="1434" dy="789" grid="1" gridSize="10" guides="1" tooltips="1" connect="1" arrows="1" fold="1" page="1" pageScale="1" pageWidth="850" pageHeight="1100" math="0" shadow="0">
      <root>
        <mxCell id="0" />
        <mxCell id="1" parent="0" />
        <mxCell id="nqhNc1T-F_GzJBxv1cFb-12" value="bin/AwsGenerator.ml" style="swimlane;whiteSpace=wrap;html=1;" vertex="1" parent="1">
          <mxGeometry x="80" y="130" width="1710" height="720" as="geometry" />
        </mxCell>
        <mxCell id="nqhNc1T-F_GzJBxv1cFb-4" value="library/parse/Json.ml" style="rounded=0;whiteSpace=wrap;html=1;" vertex="1" parent="nqhNc1T-F_GzJBxv1cFb-12">
          <mxGeometry x="210" y="210" width="120" height="60" as="geometry" />
        </mxCell>
        <mxCell id="nqhNc1T-F_GzJBxv1cFb-5" style="edgeStyle=orthogonalEdgeStyle;rounded=0;orthogonalLoop=1;jettySize=auto;html=1;entryX=0;entryY=0.5;entryDx=0;entryDy=0;" edge="1" parent="nqhNc1T-F_GzJBxv1cFb-12" target="nqhNc1T-F_GzJBxv1cFb-4">
          <mxGeometry relative="1" as="geometry">
            <mxPoint x="150" y="210" as="sourcePoint" />
          </mxGeometry>
        </mxCell>
        <mxCell id="nqhNc1T-F_GzJBxv1cFb-6" style="edgeStyle=orthogonalEdgeStyle;rounded=0;orthogonalLoop=1;jettySize=auto;html=1;entryX=0;entryY=0.5;entryDx=0;entryDy=0;" edge="1" parent="nqhNc1T-F_GzJBxv1cFb-12" target="nqhNc1T-F_GzJBxv1cFb-4">
          <mxGeometry relative="1" as="geometry">
            <mxPoint x="150" y="290" as="sourcePoint" />
          </mxGeometry>
        </mxCell>
        <mxCell id="nqhNc1T-F_GzJBxv1cFb-19" value="&amp;lt;&amp;lt;input&amp;gt;" style="edgeStyle=orthogonalEdgeStyle;rounded=0;orthogonalLoop=1;jettySize=auto;html=1;entryX=0.5;entryY=1;entryDx=0;entryDy=0;" edge="1" parent="nqhNc1T-F_GzJBxv1cFb-12" target="nqhNc1T-F_GzJBxv1cFb-18">
          <mxGeometry relative="1" as="geometry">
            <mxPoint x="520" y="350" as="sourcePoint" />
          </mxGeometry>
        </mxCell>
        <mxCell id="nqhNc1T-F_GzJBxv1cFb-11" value="&amp;lt;&amp;lt;output&amp;gt;&amp;gt;" style="edgeStyle=orthogonalEdgeStyle;rounded=0;orthogonalLoop=1;jettySize=auto;html=1;entryX=0;entryY=0.5;entryDx=0;entryDy=0;" edge="1" parent="nqhNc1T-F_GzJBxv1cFb-12" source="nqhNc1T-F_GzJBxv1cFb-9" target="nqhNc1T-F_GzJBxv1cFb-24">
          <mxGeometry relative="1" as="geometry">
            <mxPoint x="510" y="340" as="targetPoint" />
            <Array as="points">
              <mxPoint x="450" y="305" />
              <mxPoint x="390" y="305" />
              <mxPoint x="390" y="385" />
            </Array>
          </mxGeometry>
        </mxCell>
        <mxCell id="nqhNc1T-F_GzJBxv1cFb-9" value="library/ast/Smithy.ml" style="rounded=0;whiteSpace=wrap;html=1;" vertex="1" parent="nqhNc1T-F_GzJBxv1cFb-12">
          <mxGeometry x="380" y="210" width="120" height="60" as="geometry" />
        </mxCell>
        <mxCell id="nqhNc1T-F_GzJBxv1cFb-10" style="edgeStyle=orthogonalEdgeStyle;rounded=0;orthogonalLoop=1;jettySize=auto;html=1;entryX=0;entryY=0.5;entryDx=0;entryDy=0;" edge="1" parent="nqhNc1T-F_GzJBxv1cFb-12" source="nqhNc1T-F_GzJBxv1cFb-4" target="nqhNc1T-F_GzJBxv1cFb-9">
          <mxGeometry relative="1" as="geometry" />
        </mxCell>
        <mxCell id="nqhNc1T-F_GzJBxv1cFb-55" style="edgeStyle=orthogonalEdgeStyle;rounded=0;orthogonalLoop=1;jettySize=auto;html=1;" edge="1" parent="nqhNc1T-F_GzJBxv1cFb-12" source="nqhNc1T-F_GzJBxv1cFb-13">
          <mxGeometry relative="1" as="geometry">
            <mxPoint x="1440" y="100" as="targetPoint" />
          </mxGeometry>
        </mxCell>
        <mxCell id="nqhNc1T-F_GzJBxv1cFb-13" value="gen_types" style="rounded=0;whiteSpace=wrap;html=1;" vertex="1" parent="nqhNc1T-F_GzJBxv1cFb-12">
          <mxGeometry x="1210" y="70" width="120" height="60" as="geometry" />
        </mxCell>
        <mxCell id="nqhNc1T-F_GzJBxv1cFb-14" value="gen_builders" style="rounded=0;whiteSpace=wrap;html=1;" vertex="1" parent="nqhNc1T-F_GzJBxv1cFb-12">
          <mxGeometry x="1210" y="144" width="120" height="60" as="geometry" />
        </mxCell>
        <mxCell id="nqhNc1T-F_GzJBxv1cFb-57" style="edgeStyle=orthogonalEdgeStyle;rounded=0;orthogonalLoop=1;jettySize=auto;html=1;" edge="1" parent="nqhNc1T-F_GzJBxv1cFb-12" source="nqhNc1T-F_GzJBxv1cFb-15" target="nqhNc1T-F_GzJBxv1cFb-47">
          <mxGeometry relative="1" as="geometry" />
        </mxCell>
        <mxCell id="nqhNc1T-F_GzJBxv1cFb-15" value="gen_operations" style="rounded=0;whiteSpace=wrap;html=1;" vertex="1" parent="nqhNc1T-F_GzJBxv1cFb-12">
          <mxGeometry x="1210" y="220" width="120" height="60" as="geometry" />
        </mxCell>
        <mxCell id="nqhNc1T-F_GzJBxv1cFb-16" value="gen_deserializers" style="rounded=0;whiteSpace=wrap;html=1;" vertex="1" parent="nqhNc1T-F_GzJBxv1cFb-12">
          <mxGeometry x="1210" y="370" width="120" height="60" as="geometry" />
        </mxCell>
        <mxCell id="nqhNc1T-F_GzJBxv1cFb-58" style="edgeStyle=orthogonalEdgeStyle;rounded=0;orthogonalLoop=1;jettySize=auto;html=1;" edge="1" parent="nqhNc1T-F_GzJBxv1cFb-12" source="nqhNc1T-F_GzJBxv1cFb-17" target="nqhNc1T-F_GzJBxv1cFb-48">
          <mxGeometry relative="1" as="geometry" />
        </mxCell>
        <mxCell id="nqhNc1T-F_GzJBxv1cFb-17" value="gen_serializers" style="rounded=0;whiteSpace=wrap;html=1;" vertex="1" parent="nqhNc1T-F_GzJBxv1cFb-12">
          <mxGeometry x="1210" y="295" width="120" height="60" as="geometry" />
        </mxCell>
        <mxCell id="nqhNc1T-F_GzJBxv1cFb-34" style="edgeStyle=orthogonalEdgeStyle;rounded=0;orthogonalLoop=1;jettySize=auto;html=1;entryX=0;entryY=0.25;entryDx=0;entryDy=0;exitX=1;exitY=1;exitDx=0;exitDy=0;" edge="1" parent="nqhNc1T-F_GzJBxv1cFb-12" source="nqhNc1T-F_GzJBxv1cFb-18" target="nqhNc1T-F_GzJBxv1cFb-27">
          <mxGeometry relative="1" as="geometry">
            <Array as="points">
              <mxPoint x="640" y="270" />
              <mxPoint x="640" y="385" />
            </Array>
          </mxGeometry>
        </mxCell>
        <mxCell id="nqhNc1T-F_GzJBxv1cFb-36" style="edgeStyle=orthogonalEdgeStyle;rounded=0;orthogonalLoop=1;jettySize=auto;html=1;entryX=0;entryY=0.5;entryDx=0;entryDy=0;" edge="1" parent="nqhNc1T-F_GzJBxv1cFb-12" source="nqhNc1T-F_GzJBxv1cFb-18" target="nqhNc1T-F_GzJBxv1cFb-13">
          <mxGeometry relative="1" as="geometry" />
        </mxCell>
        <mxCell id="nqhNc1T-F_GzJBxv1cFb-37" style="edgeStyle=orthogonalEdgeStyle;rounded=0;orthogonalLoop=1;jettySize=auto;html=1;entryX=0;entryY=0.5;entryDx=0;entryDy=0;" edge="1" parent="nqhNc1T-F_GzJBxv1cFb-12" source="nqhNc1T-F_GzJBxv1cFb-18" target="nqhNc1T-F_GzJBxv1cFb-14">
          <mxGeometry relative="1" as="geometry" />
        </mxCell>
        <mxCell id="nqhNc1T-F_GzJBxv1cFb-38" style="edgeStyle=orthogonalEdgeStyle;rounded=0;orthogonalLoop=1;jettySize=auto;html=1;" edge="1" parent="nqhNc1T-F_GzJBxv1cFb-12" source="nqhNc1T-F_GzJBxv1cFb-18" target="nqhNc1T-F_GzJBxv1cFb-15">
          <mxGeometry relative="1" as="geometry" />
        </mxCell>
        <mxCell id="nqhNc1T-F_GzJBxv1cFb-39" style="edgeStyle=orthogonalEdgeStyle;rounded=0;orthogonalLoop=1;jettySize=auto;html=1;entryX=0;entryY=0.5;entryDx=0;entryDy=0;" edge="1" parent="nqhNc1T-F_GzJBxv1cFb-12" source="nqhNc1T-F_GzJBxv1cFb-18" target="nqhNc1T-F_GzJBxv1cFb-17">
          <mxGeometry relative="1" as="geometry" />
        </mxCell>
        <mxCell id="nqhNc1T-F_GzJBxv1cFb-40" style="edgeStyle=orthogonalEdgeStyle;rounded=0;orthogonalLoop=1;jettySize=auto;html=1;entryX=0;entryY=0.5;entryDx=0;entryDy=0;" edge="1" parent="nqhNc1T-F_GzJBxv1cFb-12" source="nqhNc1T-F_GzJBxv1cFb-18" target="nqhNc1T-F_GzJBxv1cFb-16">
          <mxGeometry relative="1" as="geometry" />
        </mxCell>
        <mxCell id="nqhNc1T-F_GzJBxv1cFb-45" style="edgeStyle=orthogonalEdgeStyle;rounded=0;orthogonalLoop=1;jettySize=auto;html=1;entryX=0;entryY=0.5;entryDx=0;entryDy=0;" edge="1" parent="nqhNc1T-F_GzJBxv1cFb-12" source="nqhNc1T-F_GzJBxv1cFb-18" target="nqhNc1T-F_GzJBxv1cFb-43">
          <mxGeometry relative="1" as="geometry" />
        </mxCell>
        <mxCell id="nqhNc1T-F_GzJBxv1cFb-18" value="Organize" style="rounded=0;whiteSpace=wrap;html=1;" vertex="1" parent="nqhNc1T-F_GzJBxv1cFb-12">
          <mxGeometry x="650" y="210" width="120" height="60" as="geometry" />
        </mxCell>
        <mxCell id="nqhNc1T-F_GzJBxv1cFb-23" value="Shape" style="swimlane;fontStyle=0;childLayout=stackLayout;horizontal=1;startSize=30;horizontalStack=0;resizeParent=1;resizeParentMax=0;resizeLast=0;collapsible=1;marginBottom=0;whiteSpace=wrap;html=1;" vertex="1" parent="nqhNc1T-F_GzJBxv1cFb-12">
          <mxGeometry x="430" y="340" width="140" height="90" as="geometry" />
        </mxCell>
        <mxCell id="nqhNc1T-F_GzJBxv1cFb-24" value="name" style="text;strokeColor=none;fillColor=none;align=left;verticalAlign=middle;spacingLeft=4;spacingRight=4;overflow=hidden;points=[[0,0.5],[1,0.5]];portConstraint=eastwest;rotatable=0;whiteSpace=wrap;html=1;" vertex="1" parent="nqhNc1T-F_GzJBxv1cFb-23">
          <mxGeometry y="30" width="140" height="30" as="geometry" />
        </mxCell>
        <mxCell id="nqhNc1T-F_GzJBxv1cFb-25" value="descriptor" style="text;strokeColor=none;fillColor=none;align=left;verticalAlign=middle;spacingLeft=4;spacingRight=4;overflow=hidden;points=[[0,0.5],[1,0.5]];portConstraint=eastwest;rotatable=0;whiteSpace=wrap;html=1;" vertex="1" parent="nqhNc1T-F_GzJBxv1cFb-23">
          <mxGeometry y="60" width="140" height="30" as="geometry" />
        </mxCell>
        <mxCell id="nqhNc1T-F_GzJBxv1cFb-41" value="&amp;lt;&amp;lt;input&amp;gt;&amp;gt;" style="edgeStyle=orthogonalEdgeStyle;rounded=0;orthogonalLoop=1;jettySize=auto;html=1;exitX=0.5;exitY=0;exitDx=0;exitDy=0;" edge="1" parent="nqhNc1T-F_GzJBxv1cFb-12" source="nqhNc1T-F_GzJBxv1cFb-27">
          <mxGeometry relative="1" as="geometry">
            <mxPoint x="850" y="250" as="targetPoint" />
          </mxGeometry>
        </mxCell>
        <mxCell id="nqhNc1T-F_GzJBxv1cFb-27" value="ShapeWithTarget" style="swimlane;fontStyle=0;childLayout=stackLayout;horizontal=1;startSize=30;horizontalStack=0;resizeParent=1;resizeParentMax=0;resizeLast=0;collapsible=1;marginBottom=0;whiteSpace=wrap;html=1;" vertex="1" parent="nqhNc1T-F_GzJBxv1cFb-12">
          <mxGeometry x="780" y="355" width="140" height="120" as="geometry" />
        </mxCell>
        <mxCell id="nqhNc1T-F_GzJBxv1cFb-28" value="name" style="text;strokeColor=none;fillColor=none;align=left;verticalAlign=middle;spacingLeft=4;spacingRight=4;overflow=hidden;points=[[0,0.5],[1,0.5]];portConstraint=eastwest;rotatable=0;whiteSpace=wrap;html=1;" vertex="1" parent="nqhNc1T-F_GzJBxv1cFb-27">
          <mxGeometry y="30" width="140" height="30" as="geometry" />
        </mxCell>
        <mxCell id="nqhNc1T-F_GzJBxv1cFb-29" value="descriptor" style="text;strokeColor=none;fillColor=none;align=left;verticalAlign=middle;spacingLeft=4;spacingRight=4;overflow=hidden;points=[[0,0.5],[1,0.5]];portConstraint=eastwest;rotatable=0;whiteSpace=wrap;html=1;" vertex="1" parent="nqhNc1T-F_GzJBxv1cFb-27">
          <mxGeometry y="60" width="140" height="30" as="geometry" />
        </mxCell>
        <mxCell id="nqhNc1T-F_GzJBxv1cFb-30" value="recursWith" style="text;strokeColor=none;fillColor=none;align=left;verticalAlign=middle;spacingLeft=4;spacingRight=4;overflow=hidden;points=[[0,0.5],[1,0.5]];portConstraint=eastwest;rotatable=0;whiteSpace=wrap;html=1;" vertex="1" parent="nqhNc1T-F_GzJBxv1cFb-27">
          <mxGeometry y="90" width="140" height="30" as="geometry" />
        </mxCell>
        <mxCell id="nqhNc1T-F_GzJBxv1cFb-33" value="0..*" style="edgeStyle=orthogonalEdgeStyle;rounded=0;orthogonalLoop=1;jettySize=auto;html=1;entryX=0;entryY=0.767;entryDx=0;entryDy=0;entryPerimeter=0;" edge="1" parent="nqhNc1T-F_GzJBxv1cFb-27" source="nqhNc1T-F_GzJBxv1cFb-30" target="nqhNc1T-F_GzJBxv1cFb-28">
          <mxGeometry relative="1" as="geometry">
            <Array as="points">
              <mxPoint x="-70" y="105" />
              <mxPoint x="-70" y="53" />
            </Array>
          </mxGeometry>
        </mxCell>
        <mxCell id="nqhNc1T-F_GzJBxv1cFb-32" style="edgeStyle=orthogonalEdgeStyle;rounded=0;orthogonalLoop=1;jettySize=auto;html=1;entryX=0.5;entryY=0;entryDx=0;entryDy=0;" edge="1" parent="nqhNc1T-F_GzJBxv1cFb-12" source="nqhNc1T-F_GzJBxv1cFb-31" target="nqhNc1T-F_GzJBxv1cFb-18">
          <mxGeometry relative="1" as="geometry" />
        </mxCell>
        <mxCell id="nqhNc1T-F_GzJBxv1cFb-31" value="Rearrange shapes into dependency order using strong-connected components algorithm" style="shape=note;whiteSpace=wrap;html=1;backgroundOutline=1;darkOpacity=0.05;" vertex="1" parent="nqhNc1T-F_GzJBxv1cFb-12">
          <mxGeometry x="610" y="60" width="200" height="100" as="geometry" />
        </mxCell>
        <mxCell id="nqhNc1T-F_GzJBxv1cFb-42" value="types.ml&lt;br&gt;types.mli" style="strokeWidth=2;html=1;shape=mxgraph.flowchart.document2;whiteSpace=wrap;size=0.25;" vertex="1" parent="nqhNc1T-F_GzJBxv1cFb-12">
          <mxGeometry x="1440" y="70" width="100" height="60" as="geometry" />
        </mxCell>
        <mxCell id="nqhNc1T-F_GzJBxv1cFb-43" value="gen_module" style="rounded=0;whiteSpace=wrap;html=1;" vertex="1" parent="nqhNc1T-F_GzJBxv1cFb-12">
          <mxGeometry x="1210" y="454" width="120" height="60" as="geometry" />
        </mxCell>
        <mxCell id="nqhNc1T-F_GzJBxv1cFb-46" value="buliders.ml&lt;br&gt;builders.mli" style="strokeWidth=2;html=1;shape=mxgraph.flowchart.document2;whiteSpace=wrap;size=0.25;" vertex="1" parent="nqhNc1T-F_GzJBxv1cFb-12">
          <mxGeometry x="1440" y="150" width="100" height="60" as="geometry" />
        </mxCell>
        <mxCell id="nqhNc1T-F_GzJBxv1cFb-47" value="operations.ml&lt;br&gt;operations.mli" style="strokeWidth=2;html=1;shape=mxgraph.flowchart.document2;whiteSpace=wrap;size=0.25;" vertex="1" parent="nqhNc1T-F_GzJBxv1cFb-12">
          <mxGeometry x="1440" y="220" width="100" height="60" as="geometry" />
        </mxCell>
        <mxCell id="nqhNc1T-F_GzJBxv1cFb-48" value="serializers.ml" style="strokeWidth=2;html=1;shape=mxgraph.flowchart.document2;whiteSpace=wrap;size=0.25;" vertex="1" parent="nqhNc1T-F_GzJBxv1cFb-12">
          <mxGeometry x="1440" y="295" width="100" height="60" as="geometry" />
        </mxCell>
        <mxCell id="nqhNc1T-F_GzJBxv1cFb-49" value="deserializers.ml" style="strokeWidth=2;html=1;shape=mxgraph.flowchart.document2;whiteSpace=wrap;size=0.25;" vertex="1" parent="nqhNc1T-F_GzJBxv1cFb-12">
          <mxGeometry x="1440" y="370" width="100" height="60" as="geometry" />
        </mxCell>
        <mxCell id="nqhNc1T-F_GzJBxv1cFb-50" value="AWS_SmSdk_Client_&amp;lt;Service&amp;gt;.ml" style="strokeWidth=2;html=1;shape=mxgraph.flowchart.document2;whiteSpace=wrap;size=0.25;" vertex="1" parent="nqhNc1T-F_GzJBxv1cFb-12">
          <mxGeometry x="1390" y="460" width="230" height="60" as="geometry" />
        </mxCell>
        <mxCell id="nqhNc1T-F_GzJBxv1cFb-51" style="edgeStyle=orthogonalEdgeStyle;rounded=0;orthogonalLoop=1;jettySize=auto;html=1;entryX=1;entryY=0.5;entryDx=0;entryDy=0;entryPerimeter=0;" edge="1" parent="nqhNc1T-F_GzJBxv1cFb-12" source="nqhNc1T-F_GzJBxv1cFb-50" target="nqhNc1T-F_GzJBxv1cFb-47">
          <mxGeometry relative="1" as="geometry">
            <Array as="points">
              <mxPoint x="1560" y="250" />
            </Array>
          </mxGeometry>
        </mxCell>
        <mxCell id="nqhNc1T-F_GzJBxv1cFb-52" style="edgeStyle=orthogonalEdgeStyle;rounded=0;orthogonalLoop=1;jettySize=auto;html=1;entryX=1;entryY=0.5;entryDx=0;entryDy=0;entryPerimeter=0;" edge="1" parent="nqhNc1T-F_GzJBxv1cFb-12" source="nqhNc1T-F_GzJBxv1cFb-50" target="nqhNc1T-F_GzJBxv1cFb-46">
          <mxGeometry relative="1" as="geometry">
            <Array as="points">
              <mxPoint x="1560" y="180" />
            </Array>
          </mxGeometry>
        </mxCell>
        <mxCell id="nqhNc1T-F_GzJBxv1cFb-53" style="edgeStyle=orthogonalEdgeStyle;rounded=0;orthogonalLoop=1;jettySize=auto;html=1;entryX=1;entryY=0.5;entryDx=0;entryDy=0;entryPerimeter=0;" edge="1" parent="nqhNc1T-F_GzJBxv1cFb-12" source="nqhNc1T-F_GzJBxv1cFb-50" target="nqhNc1T-F_GzJBxv1cFb-42">
          <mxGeometry relative="1" as="geometry">
            <Array as="points">
              <mxPoint x="1560" y="100" />
            </Array>
          </mxGeometry>
        </mxCell>
        <mxCell id="nqhNc1T-F_GzJBxv1cFb-54" value="SDK" style="swimlane;horizontal=0;whiteSpace=wrap;html=1;direction=west;" vertex="1" parent="nqhNc1T-F_GzJBxv1cFb-12">
          <mxGeometry x="1365" y="50" width="300" height="490" as="geometry" />
        </mxCell>
        <mxCell id="nqhNc1T-F_GzJBxv1cFb-56" style="edgeStyle=orthogonalEdgeStyle;rounded=0;orthogonalLoop=1;jettySize=auto;html=1;entryX=0.01;entryY=0.4;entryDx=0;entryDy=0;entryPerimeter=0;" edge="1" parent="nqhNc1T-F_GzJBxv1cFb-12" source="nqhNc1T-F_GzJBxv1cFb-14" target="nqhNc1T-F_GzJBxv1cFb-46">
          <mxGeometry relative="1" as="geometry" />
        </mxCell>
        <mxCell id="nqhNc1T-F_GzJBxv1cFb-59" style="edgeStyle=orthogonalEdgeStyle;rounded=0;orthogonalLoop=1;jettySize=auto;html=1;entryX=0;entryY=0.5;entryDx=0;entryDy=0;entryPerimeter=0;" edge="1" parent="nqhNc1T-F_GzJBxv1cFb-12" source="nqhNc1T-F_GzJBxv1cFb-16" target="nqhNc1T-F_GzJBxv1cFb-49">
          <mxGeometry relative="1" as="geometry" />
        </mxCell>
        <mxCell id="nqhNc1T-F_GzJBxv1cFb-60" style="edgeStyle=orthogonalEdgeStyle;rounded=0;orthogonalLoop=1;jettySize=auto;html=1;entryX=0.004;entryY=0.4;entryDx=0;entryDy=0;entryPerimeter=0;" edge="1" parent="nqhNc1T-F_GzJBxv1cFb-12" source="nqhNc1T-F_GzJBxv1cFb-43" target="nqhNc1T-F_GzJBxv1cFb-50">
          <mxGeometry relative="1" as="geometry" />
        </mxCell>
        <mxCell id="nqhNc1T-F_GzJBxv1cFb-61" value="Smithy IDL files for each AWS service" style="shape=note;whiteSpace=wrap;html=1;backgroundOutline=1;darkOpacity=0.05;" vertex="1" parent="nqhNc1T-F_GzJBxv1cFb-12">
          <mxGeometry x="30" y="60" width="120" height="100" as="geometry" />
        </mxCell>
        <mxCell id="nqhNc1T-F_GzJBxv1cFb-74" style="edgeStyle=orthogonalEdgeStyle;rounded=0;orthogonalLoop=1;jettySize=auto;html=1;" edge="1" parent="nqhNc1T-F_GzJBxv1cFb-12" source="nqhNc1T-F_GzJBxv1cFb-62" target="nqhNc1T-F_GzJBxv1cFb-4">
          <mxGeometry relative="1" as="geometry" />
        </mxCell>
        <mxCell id="nqhNc1T-F_GzJBxv1cFb-62" value="JSON parser for smithy IDL JSON files" style="shape=note;whiteSpace=wrap;html=1;backgroundOutline=1;darkOpacity=0.05;" vertex="1" parent="nqhNc1T-F_GzJBxv1cFb-12">
          <mxGeometry x="205" y="60" width="130" height="100" as="geometry" />
        </mxCell>
        <mxCell id="nqhNc1T-F_GzJBxv1cFb-73" style="edgeStyle=orthogonalEdgeStyle;rounded=0;orthogonalLoop=1;jettySize=auto;html=1;entryX=0.5;entryY=0;entryDx=0;entryDy=0;" edge="1" parent="nqhNc1T-F_GzJBxv1cFb-12" source="nqhNc1T-F_GzJBxv1cFb-63" target="nqhNc1T-F_GzJBxv1cFb-9">
          <mxGeometry relative="1" as="geometry" />
        </mxCell>
        <mxCell id="nqhNc1T-F_GzJBxv1cFb-63" value="convert Smithy json into shape definitions with their traits" style="shape=note;whiteSpace=wrap;html=1;backgroundOutline=1;darkOpacity=0.05;" vertex="1" parent="nqhNc1T-F_GzJBxv1cFb-12">
          <mxGeometry x="375" y="60" width="130" height="100" as="geometry" />
        </mxCell>
        <mxCell id="nqhNc1T-F_GzJBxv1cFb-72" value="&lt;i&gt;Shapes&lt;/i&gt; describe each type, whether that be a primitive type (integer, string, boolean), complex type (structure, map, list, enum, union, set), operations (that can be performed on the service) or the service object which describes the protocol and how to invoke the service" style="shape=note;whiteSpace=wrap;html=1;backgroundOutline=1;darkOpacity=0.05;size=17;" vertex="1" parent="nqhNc1T-F_GzJBxv1cFb-12">
          <mxGeometry x="340" y="460" width="290" height="120" as="geometry" />
        </mxCell>
        <mxCell id="nqhNc1T-F_GzJBxv1cFb-75" value="dynamodb.json" style="shape=document;whiteSpace=wrap;html=1;boundedLbl=1;" vertex="1" parent="nqhNc1T-F_GzJBxv1cFb-12">
          <mxGeometry x="30" y="180" width="120" height="80" as="geometry" />
        </mxCell>
        <mxCell id="nqhNc1T-F_GzJBxv1cFb-76" value="sqs.json" style="shape=document;whiteSpace=wrap;html=1;boundedLbl=1;" vertex="1" parent="nqhNc1T-F_GzJBxv1cFb-12">
          <mxGeometry x="30" y="270" width="120" height="80" as="geometry" />
        </mxCell>
        <mxCell id="nqhNc1T-F_GzJBxv1cFb-78" style="edgeStyle=orthogonalEdgeStyle;rounded=0;orthogonalLoop=1;jettySize=auto;html=1;" edge="1" parent="nqhNc1T-F_GzJBxv1cFb-12" source="nqhNc1T-F_GzJBxv1cFb-77" target="nqhNc1T-F_GzJBxv1cFb-30">
          <mxGeometry relative="1" as="geometry">
            <Array as="points">
              <mxPoint x="950" y="550" />
              <mxPoint x="950" y="460" />
            </Array>
          </mxGeometry>
        </mxCell>
        <mxCell id="nqhNc1T-F_GzJBxv1cFb-77" value="recursWith is all the other shapes that are mutually recursive this one. They must be generated with &lt;font face=&quot;Lucida Console&quot;&gt;type ... and ...&lt;/font&gt; syntax" style="shape=note;whiteSpace=wrap;html=1;backgroundOutline=1;darkOpacity=0.05;size=17;" vertex="1" parent="nqhNc1T-F_GzJBxv1cFb-12">
          <mxGeometry x="730" y="500" width="210" height="100" as="geometry" />
        </mxCell>
        <mxCell id="nqhNc1T-F_GzJBxv1cFb-79" value="The module file defines the entry point for the SDK module and repeats the definitions in types/builders/operations with their documentation" style="shape=note;whiteSpace=wrap;html=1;backgroundOutline=1;darkOpacity=0.05;" vertex="1" parent="nqhNc1T-F_GzJBxv1cFb-12">
          <mxGeometry x="1386" y="590" width="220" height="100" as="geometry" />
        </mxCell>
        <mxCell id="nqhNc1T-F_GzJBxv1cFb-80" style="edgeStyle=orthogonalEdgeStyle;rounded=0;orthogonalLoop=1;jettySize=auto;html=1;entryX=0.461;entryY=0.883;entryDx=0;entryDy=0;entryPerimeter=0;" edge="1" parent="nqhNc1T-F_GzJBxv1cFb-12" source="nqhNc1T-F_GzJBxv1cFb-79" target="nqhNc1T-F_GzJBxv1cFb-50">
          <mxGeometry relative="1" as="geometry" />
        </mxCell>
      </root>
    </mxGraphModel>
  </diagram>
</mxfile>
